<svg xmlns="http://www.w3.org/2000/svg" viewBox="0 0 800 400" width="800" height="400">
  <rect width="800" height="400" fill="#0a1628"/>
  <rect x="0" y="0" width="800" height="400" fill="url(#grad)" opacity="0.6"/>
  <defs>
    <linearGradient id="grad" x1="0" y1="0" x2="1" y2="1"><stop offset="0" stop-color="#d4a843" stop-opacity="0.3"/><stop offset="1" stop-color="#0a1628" stop-opacity="0"/></linearGradient>
  </defs>
  <g transform="translate(160,100)">
    <circle cx="100" cy="70" r="40" fill="none" stroke="#d4a843" stroke-width="4"/>
    <rect x="75" y="95" width="50" height="10" rx="3" fill="#d4a843"/>
    <rect x="85" y="105" width="30" height="15" rx="2" fill="#d4a843"/>
    <line x1="100" y1="120" x2="100" y2="150" stroke="#d4a843" stroke-width="3"/>
    <rect x="80" y="60" width="40" height="8" rx="2" fill="#e8c46a"/>
    <text x="170" y="60" font-family="Arial,sans-serif" font-size="28" fill="#e8c46a" font-weight="700">Find Locksmiths</text>
    <text x="170" y="90" font-family="Arial,sans-serif" font-size="16" fill="#adb5bd">Trusted Local Locksmiths Near You</text>
    <text x="170" y="115" font-family="Arial,sans-serif" font-size="14" fill="#6c757d">Leeds • Emergency • 24/7</text>
  </g>
  <g transform="translate(520,80)">
    <circle cx="60" cy="50" r="30" fill="none" stroke="#e8c46a" stroke-width="3"/>
    <path d="M50,75 L70,75 L65,95 L55,95 Z" fill="#d4a843" opacity="0.6"/>
    <rect x="55" y="100" width="10" height="20" rx="2" fill="#d4a843" opacity="0.4"/>
    <circle cx="60" cy="180" r="25" fill="none" stroke="#e8c46a" stroke-width="2" opacity="0.5"/>
    <path d="M50,198 L70,198 L65,210 L55,210 Z" fill="#d4a843" opacity="0.3"/>
    <rect x="55" y="210" width="10" height="15" rx="2" fill="#d4a843" opacity="0.2"/>
  </g>
</svg>